G04 PROTEUS GERBER X2 FILE*
%TF.GenerationSoftware,Labcenter,Proteus,8.13-SP0-Build31525*%
%TF.CreationDate,2022-07-19T09:54:05+00:00*%
%TF.FileFunction,Soldermask,Top*%
%TF.FilePolarity,Negative*%
%TF.Part,Single*%
%TF.SameCoordinates,{6f39dd04-efa5-45c4-8082-559ce8106841}*%
%FSLAX45Y45*%
%MOMM*%
G01*
%TA.AperFunction,Material*%
%ADD71C,1.016000*%
%AMPPAD012*
4,1,36,
-1.016000,1.143000,
1.016000,1.143000,
1.041970,1.140470,
1.065980,1.133200,
1.087580,1.121650,
1.106290,1.106290,
1.121650,1.087570,
1.133200,1.065980,
1.140470,1.041970,
1.143000,1.016000,
1.143000,-1.016000,
1.140470,-1.041970,
1.133200,-1.065980,
1.121650,-1.087570,
1.106290,-1.106290,
1.087580,-1.121650,
1.065980,-1.133200,
1.041970,-1.140470,
1.016000,-1.143000,
-1.016000,-1.143000,
-1.041970,-1.140470,
-1.065980,-1.133200,
-1.087580,-1.121650,
-1.106290,-1.106290,
-1.121650,-1.087570,
-1.133200,-1.065980,
-1.140470,-1.041970,
-1.143000,-1.016000,
-1.143000,1.016000,
-1.140470,1.041970,
-1.133200,1.065980,
-1.121650,1.087570,
-1.106290,1.106290,
-1.087580,1.121650,
-1.065980,1.133200,
-1.041970,1.140470,
-1.016000,1.143000,
0*%
%TA.AperFunction,Material*%
%ADD20PPAD012*%
%AMPPAD013*
4,1,36,
-1.143000,-1.016000,
-1.143000,1.016000,
-1.140470,1.041970,
-1.133200,1.065980,
-1.121650,1.087580,
-1.106290,1.106290,
-1.087570,1.121650,
-1.065980,1.133200,
-1.041970,1.140470,
-1.016000,1.143000,
1.016000,1.143000,
1.041970,1.140470,
1.065980,1.133200,
1.087570,1.121650,
1.106290,1.106290,
1.121650,1.087580,
1.133200,1.065980,
1.140470,1.041970,
1.143000,1.016000,
1.143000,-1.016000,
1.140470,-1.041970,
1.133200,-1.065980,
1.121650,-1.087580,
1.106290,-1.106290,
1.087570,-1.121650,
1.065980,-1.133200,
1.041970,-1.140470,
1.016000,-1.143000,
-1.016000,-1.143000,
-1.041970,-1.140470,
-1.065980,-1.133200,
-1.087570,-1.121650,
-1.106290,-1.106290,
-1.121650,-1.087580,
-1.133200,-1.065980,
-1.140470,-1.041970,
-1.143000,-1.016000,
0*%
%TA.AperFunction,Material*%
%ADD21PPAD013*%
%TA.AperFunction,Material*%
%ADD22C,2.032000*%
%ADD23C,2.540000*%
%ADD24C,1.050000*%
%AMPPAD017*
4,1,36,
-0.762000,-0.635000,
-0.762000,0.635000,
-0.759470,0.660970,
-0.752200,0.684980,
-0.740650,0.706580,
-0.725290,0.725290,
-0.706570,0.740650,
-0.684980,0.752200,
-0.660970,0.759470,
-0.635000,0.762000,
0.635000,0.762000,
0.660970,0.759470,
0.684980,0.752200,
0.706570,0.740650,
0.725290,0.725290,
0.740650,0.706580,
0.752200,0.684980,
0.759470,0.660970,
0.762000,0.635000,
0.762000,-0.635000,
0.759470,-0.660970,
0.752200,-0.684980,
0.740650,-0.706580,
0.725290,-0.725290,
0.706570,-0.740650,
0.684980,-0.752200,
0.660970,-0.759470,
0.635000,-0.762000,
-0.635000,-0.762000,
-0.660970,-0.759470,
-0.684980,-0.752200,
-0.706570,-0.740650,
-0.725290,-0.725290,
-0.740650,-0.706580,
-0.752200,-0.684980,
-0.759470,-0.660970,
-0.762000,-0.635000,
0*%
%TA.AperFunction,Material*%
%ADD25PPAD017*%
%ADD26C,1.524000*%
%AMPPAD019*
4,1,36,
-0.635000,0.762000,
0.635000,0.762000,
0.660970,0.759470,
0.684980,0.752200,
0.706580,0.740650,
0.725290,0.725290,
0.740650,0.706570,
0.752200,0.684980,
0.759470,0.660970,
0.762000,0.635000,
0.762000,-0.635000,
0.759470,-0.660970,
0.752200,-0.684980,
0.740650,-0.706570,
0.725290,-0.725290,
0.706580,-0.740650,
0.684980,-0.752200,
0.660970,-0.759470,
0.635000,-0.762000,
-0.635000,-0.762000,
-0.660970,-0.759470,
-0.684980,-0.752200,
-0.706580,-0.740650,
-0.725290,-0.725290,
-0.740650,-0.706570,
-0.752200,-0.684980,
-0.759470,-0.660970,
-0.762000,-0.635000,
-0.762000,0.635000,
-0.759470,0.660970,
-0.752200,0.684980,
-0.740650,0.706570,
-0.725290,0.725290,
-0.706580,0.740650,
-0.684980,0.752200,
-0.660970,0.759470,
-0.635000,0.762000,
0*%
%ADD27PPAD019*%
%TA.AperFunction,Profile*%
%ADD18C,0.203200*%
%TD.AperFunction*%
D71*
X-7874000Y+7620000D03*
X-7239000Y+8128000D03*
X-5651500Y+7366000D03*
X-5651500Y+7937500D03*
X-4064000Y+9080500D03*
X-4064000Y+7302500D03*
X-6731000Y+7874000D03*
X-7302500Y+7175500D03*
X-4508500Y+8572500D03*
X-4381500Y+8699500D03*
X-6667500Y+6540500D03*
X-6667500Y+5905500D03*
X-4572000Y+6413500D03*
X-8826500Y+5778500D03*
X-8826500Y+8128000D03*
X-7366000Y+8001000D03*
X-7620000Y+7747000D03*
X-7556500Y+8763000D03*
X-6858000Y+8699500D03*
X-7450000Y+6858000D03*
X-8191500Y+9588500D03*
X-3175000Y+6096000D03*
X-3937000Y+8318500D03*
X-6731000Y+8572500D03*
X-6921500Y+9080500D03*
X-7937500Y+9588500D03*
X-8191500Y+9715500D03*
X-7239000Y+9271000D03*
X-6858000Y+9271000D03*
X-8191500Y+7620000D03*
X-6286500Y+7239000D03*
X-6032500Y+7239000D03*
X-5207000Y+8445500D03*
X-6350000Y+10033000D03*
X-6477000Y+5969000D03*
X-5905500Y+7620000D03*
X-4191000Y+8191500D03*
X-8699500Y+8318500D03*
X-8699500Y+5461000D03*
X-8572500Y+5651500D03*
X-5143500Y+5143500D03*
X-8509000Y+9207500D03*
X-5270500Y+9715500D03*
X-9271000Y+9715500D03*
D20*
X-6000000Y+8400000D03*
X-5746000Y+8400000D03*
D21*
X-6350000Y+8696000D03*
X-6350000Y+8950000D03*
X-6350000Y+9204000D03*
X-6350000Y+7596000D03*
X-6350000Y+7850000D03*
X-6350000Y+8104000D03*
X-5400000Y+8108000D03*
X-5400000Y+7854000D03*
X-5400000Y+7600000D03*
X-5400000Y+9204000D03*
X-5400000Y+8950000D03*
X-5400000Y+8696000D03*
D22*
X-6900000Y+8900000D03*
X-6900000Y+7884000D03*
D23*
X-7800000Y+8284000D03*
X-7800000Y+9300000D03*
D22*
X-7950000Y+7300000D03*
X-6934000Y+7300000D03*
X-3634000Y+9200000D03*
X-4650000Y+9200000D03*
X-4916000Y+7300000D03*
X-3900000Y+7300000D03*
D24*
X-7500000Y+7850000D03*
X-7300000Y+7850000D03*
X-4300000Y+7700000D03*
X-4500000Y+7700000D03*
D23*
X-4850000Y+8916000D03*
X-4850000Y+7900000D03*
D20*
X-8354000Y+7950000D03*
X-8100000Y+7950000D03*
X-3700000Y+7700000D03*
X-3446000Y+7700000D03*
D21*
X-3250000Y+8350000D03*
X-3250000Y+8096000D03*
D20*
X-5950000Y+6250000D03*
X-5696000Y+6250000D03*
D21*
X-6300000Y+6546000D03*
X-6300000Y+6800000D03*
X-6300000Y+7054000D03*
X-6300000Y+5446000D03*
X-6300000Y+5700000D03*
X-6300000Y+5954000D03*
X-5350000Y+5958000D03*
X-5350000Y+5704000D03*
X-5350000Y+5450000D03*
X-5350000Y+7054000D03*
X-5350000Y+6800000D03*
X-5350000Y+6546000D03*
D22*
X-6850000Y+6750000D03*
X-6850000Y+5734000D03*
D23*
X-7134000Y+6850000D03*
X-8150000Y+6850000D03*
D22*
X-7900000Y+5150000D03*
X-6884000Y+5150000D03*
X-3584000Y+7050000D03*
X-4600000Y+7050000D03*
X-4866000Y+5150000D03*
X-3850000Y+5150000D03*
D24*
X-7450000Y+5700000D03*
X-7250000Y+5700000D03*
X-4250000Y+5550000D03*
X-4450000Y+5550000D03*
D23*
X-4800000Y+6766000D03*
X-4800000Y+5750000D03*
D20*
X-8404000Y+5450000D03*
X-8150000Y+5450000D03*
X-3650000Y+5550000D03*
X-3396000Y+5550000D03*
D25*
X-8350000Y+5950000D03*
D26*
X-8350000Y+6204000D03*
X-8350000Y+6458000D03*
X-8350000Y+6712000D03*
X-8350000Y+6966000D03*
X-8350000Y+7220000D03*
X-8350000Y+7474000D03*
X-9112000Y+7474000D03*
X-9112000Y+7220000D03*
X-9112000Y+6966000D03*
X-9112000Y+6712000D03*
X-9112000Y+6458000D03*
X-9112000Y+6204000D03*
X-9112000Y+5950000D03*
D27*
X-4850000Y+9450000D03*
D26*
X-4596000Y+9450000D03*
X-4342000Y+9450000D03*
X-4088000Y+9450000D03*
X-3834000Y+9450000D03*
X-3580000Y+9450000D03*
X-3326000Y+9450000D03*
X-3326000Y+10212000D03*
X-3580000Y+10212000D03*
X-3834000Y+10212000D03*
X-4088000Y+10212000D03*
X-4342000Y+10212000D03*
X-4596000Y+10212000D03*
X-4850000Y+10212000D03*
D27*
X-7350000Y+9450000D03*
D26*
X-7096000Y+9450000D03*
X-6842000Y+9450000D03*
X-6588000Y+9450000D03*
X-6334000Y+9450000D03*
X-6080000Y+9450000D03*
X-5826000Y+9450000D03*
X-5826000Y+10212000D03*
X-6080000Y+10212000D03*
X-6334000Y+10212000D03*
X-6588000Y+10212000D03*
X-6842000Y+10212000D03*
X-7096000Y+10212000D03*
X-7350000Y+10212000D03*
D25*
X-8350000Y+8450000D03*
D26*
X-8350000Y+8704000D03*
X-8350000Y+8958000D03*
X-8350000Y+9212000D03*
X-8350000Y+9466000D03*
X-8350000Y+9720000D03*
X-8350000Y+9974000D03*
X-9112000Y+9974000D03*
X-9112000Y+9720000D03*
X-9112000Y+9466000D03*
X-9112000Y+9212000D03*
X-9112000Y+8958000D03*
X-9112000Y+8704000D03*
X-9112000Y+8450000D03*
D18*
X-9400000Y+5000000D02*
X-3000000Y+5000000D01*
X-3000000Y+10400000D01*
X-9400000Y+10400000D01*
X-9400000Y+5000000D01*
M02*
